<svg width="184" height="184" viewBox="0 0 184 184" fill="none" xmlns="http://www.w3.org/2000/svg">
<path d="M92.0001 183.11C142.319 183.11 183.11 142.319 183.11 92.0001C183.11 41.6815 142.319 0.890137 92.0001 0.890137C41.6815 0.890137 0.890137 41.6815 0.890137 92.0001C0.890137 142.319 41.6815 183.11 92.0001 183.11Z" fill="white"/>
<path d="M119.12 49.29H64.8899C60.7269 49.2927 56.735 50.9476 53.7913 53.8914C50.8475 56.8351 49.1926 60.8269 49.1899 64.99V119.21C49.1926 123.374 50.8472 127.367 53.7907 130.312C56.7341 133.258 60.7259 134.915 64.8899 134.92H119.12C123.283 134.912 127.273 133.254 130.216 130.309C133.159 127.365 134.815 123.373 134.82 119.21V65C134.815 60.8378 133.159 56.8475 130.216 53.9043C127.272 50.9611 123.282 49.3053 119.12 49.3V49.29ZM91.9999 120.29C86.4245 120.29 80.9742 118.637 76.3384 115.539C71.7026 112.442 68.0894 108.039 65.9558 102.888C63.8221 97.7368 63.2639 92.0688 64.3516 86.6004C65.4393 81.1321 68.1242 76.1091 72.0666 72.1667C76.009 68.2243 81.032 65.5394 86.5003 64.4517C91.9687 63.364 97.6367 63.9222 102.788 66.0559C107.939 68.1895 112.342 71.8027 115.439 76.4385C118.537 81.0743 120.19 86.5246 120.19 92.1C120.179 99.5732 117.206 106.737 111.922 112.022C106.637 117.306 99.4731 120.279 91.9999 120.29V120.29ZM121.1 69.74C119.781 69.74 118.491 69.3489 117.394 68.6159C116.297 67.883 115.443 66.8413 114.938 65.6225C114.433 64.4038 114.301 63.0626 114.558 61.7688C114.815 60.4749 115.451 59.2865 116.384 58.3536C117.316 57.4208 118.505 56.7856 119.799 56.5282C121.093 56.2708 122.434 56.4029 123.652 56.9078C124.871 57.4126 125.913 58.2675 126.646 59.3644C127.379 60.4613 127.77 61.7508 127.77 63.07C127.77 64.839 127.067 66.5356 125.816 67.7864C124.565 69.0373 122.869 69.74 121.1 69.74V69.74Z" fill="url(#paint0_linear_570_136)"/>
<path d="M92.0002 75.8301C88.7799 75.8301 85.632 76.7851 82.9545 78.5744C80.2771 80.3638 78.1904 82.9069 76.9585 85.8823C75.7266 88.8577 75.4048 92.1315 76.0338 95.2898C76.6628 98.4481 78.2143 101.349 80.4921 103.625C82.7699 105.902 85.6716 107.451 88.8303 108.078C91.989 108.706 95.2626 108.382 98.2372 107.148C101.212 105.914 103.754 103.826 105.541 101.147C107.329 98.4689 108.282 95.3204 108.28 92.1001C108.275 87.7849 106.558 83.6481 103.505 80.5978C100.453 77.5474 96.3154 75.8327 92.0002 75.8301V75.8301Z" fill="url(#paint1_linear_570_136)"/>
<path d="M92 0.890137C74.0019 0.890137 56.408 6.22719 41.4431 16.2264C26.4783 26.2256 14.8146 40.4379 7.927 57.0659C1.03943 73.694 -0.762675 91.9911 2.74858 109.643C6.25984 127.296 14.9267 143.51 27.6533 156.237C40.3799 168.963 56.5945 177.63 74.2468 181.142C91.8991 184.653 110.196 182.851 126.824 175.963C143.452 169.076 157.665 157.412 167.664 142.447C177.663 127.482 183 109.888 183 91.8901C183 79.9398 180.646 68.1066 176.073 57.0659C171.5 46.0253 164.797 35.9936 156.347 27.5434C147.897 19.0933 137.865 12.3903 126.824 7.8171C115.784 3.24392 103.95 0.890137 92 0.890137V0.890137ZM146.72 119.21C146.715 126.529 143.806 133.548 138.631 138.724C133.456 143.9 126.439 146.812 119.12 146.82H64.89C57.5699 146.812 50.5518 143.901 45.3756 138.725C40.1994 133.548 37.288 126.53 37.28 119.21V65.0001C37.2906 57.6808 40.2029 50.6642 45.3785 45.4886C50.5541 40.313 57.5707 37.4007 64.89 37.3901H119.12C126.438 37.4007 133.454 40.3133 138.628 45.4892C143.802 50.6651 146.712 57.6817 146.72 65.0001V119.21Z" fill="url(#paint2_linear_570_136)"/>
<defs>
<linearGradient id="paint0_linear_570_136" x1="-44.2801" y1="254.63" x2="217.96" y2="-58.1" gradientUnits="userSpaceOnUse">
<stop stop-color="#FCEE21"/>
<stop offset="0.25" stop-color="#FF0000"/>
<stop offset="0.5" stop-color="#FF00FF"/>
<stop offset="0.79" stop-color="#0000FF"/>
<stop offset="1" stop-color="#662D91"/>
</linearGradient>
<linearGradient id="paint1_linear_570_136" x1="-44.2798" y1="254.63" x2="217.96" y2="-58.0999" gradientUnits="userSpaceOnUse">
<stop stop-color="#FCEE21"/>
<stop offset="0.25" stop-color="#FF0000"/>
<stop offset="0.5" stop-color="#FF00FF"/>
<stop offset="0.79" stop-color="#0000FF"/>
<stop offset="1" stop-color="#662D91"/>
</linearGradient>
<linearGradient id="paint2_linear_570_136" x1="-44.3999" y1="254.52" x2="217.83" y2="-58.2099" gradientUnits="userSpaceOnUse">
<stop stop-color="#FCEE21"/>
<stop offset="0.25" stop-color="#FF0000"/>
<stop offset="0.5" stop-color="#FF00FF"/>
<stop offset="0.79" stop-color="#0000FF"/>
<stop offset="1" stop-color="#662D91"/>
</linearGradient>
</defs>
</svg>
