<svg width="66" height="66" viewBox="0 0 66 66" fill="none" xmlns="http://www.w3.org/2000/svg">
<path fill-rule="evenodd" clip-rule="evenodd" d="M32.9165 65.4165C50.8663 65.4165 65.4165 50.8663 65.4165 32.9165C65.4165 14.9668 50.8663 0.416504 32.9165 0.416504C14.9668 0.416504 0.416504 14.9668 0.416504 32.9165C0.416504 50.8663 14.9668 65.4165 32.9165 65.4165ZM43.4205 37.3398L48.4385 42.3708C49.4363 43.375 49.4038 45.0358 48.3735 46.0758L46.937 47.4798L46.9045 47.4505C45.7007 48.3746 44.2707 48.9583 42.764 49.1405C42.439 49.1763 34.8503 49.888 25.4318 40.45C18.6165 33.6218 16.1043 28.5875 16.7705 23.082C16.8453 22.393 17.0143 21.7105 17.2905 20.9923C17.583 20.2383 17.9795 19.5363 18.454 18.9318L18.415 18.8928L19.8288 17.466C20.8655 16.426 22.523 16.3968 23.5175 17.3978L28.5388 22.4288C29.5365 23.4298 29.5073 25.0873 28.4738 26.1273L27.6353 26.9625L25.9388 28.6623C26.0311 28.824 26.1221 28.9865 26.2118 29.1498L26.215 29.1595C27.1023 30.7618 28.3178 32.9523 30.6188 35.2565C32.9198 37.564 35.1038 38.7795 36.7028 39.6668L37.2 39.9463L39.7285 37.4113C40.7653 36.3713 42.4195 36.342 43.4205 37.343V37.3398Z" fill="black"/>
</svg>
